<svg xmlns="http://www.w3.org/2000/svg" xmlns:xlink="http://www.w3.org/1999/xlink" width="500" zoomAndPan="magnify" viewBox="0 0 375 374.999991" height="500" preserveAspectRatio="xMidYMid meet" version="1.0"><defs><clipPath id="439f31cc2e"><path d="M 75.113281 27.519531 L 300 27.519531 L 300 347.769531 L 75.113281 347.769531 Z M 75.113281 27.519531 " clip-rule="nonzero"/></clipPath></defs><g clip-path="url(#439f31cc2e)"><path fill="#000000" d="M 299.992188 170.570312 L 299.992188 182.164062 C 299.992188 240.335938 255.589844 288.316406 198.890625 293.953125 L 198.890625 324.960938 L 244.699219 324.960938 C 250.980469 324.960938 256.105469 330.085938 256.105469 336.363281 C 256.105469 342.644531 250.980469 347.769531 244.699219 347.769531 L 130.523438 347.769531 C 124.246094 347.769531 119.121094 342.644531 119.121094 336.363281 C 119.121094 330.085938 124.246094 324.960938 130.523438 324.960938 L 176.015625 324.960938 L 176.015625 293.890625 C 119.503906 288.125 75.230469 240.207031 75.230469 182.164062 L 75.230469 170.570312 C 75.230469 164.292969 80.359375 159.167969 86.636719 159.167969 C 92.914062 159.167969 98.042969 164.292969 98.042969 170.570312 L 98.042969 182.164062 C 98.042969 231.558594 138.214844 271.726562 187.613281 271.726562 C 237.011719 271.726562 277.183594 231.558594 277.183594 182.164062 L 277.183594 170.570312 C 277.183594 164.292969 282.308594 159.167969 288.589844 159.167969 C 294.867188 159.167969 299.992188 164.226562 299.992188 170.570312 Z M 187.613281 248.917969 C 223.363281 248.917969 252.386719 219.898438 252.386719 184.152344 L 252.386719 92.285156 C 252.386719 56.539062 223.363281 27.519531 187.613281 27.519531 C 151.859375 27.519531 122.835938 56.539062 122.835938 92.285156 L 122.835938 184.152344 C 122.835938 219.898438 151.859375 248.917969 187.613281 248.917969 Z M 187.613281 248.917969 " fill-opacity="1" fill-rule="nonzero"/></g></svg>