<svg xmlns="http://www.w3.org/2000/svg" xmlns:xlink="http://www.w3.org/1999/xlink" width="500" zoomAndPan="magnify" viewBox="0 0 375 374.999991" height="500" preserveAspectRatio="xMidYMid meet" version="1.0"><defs><clipPath id="40a2d6cffa"><path d="M 22 86.480469 L 264 86.480469 L 264 288.230469 L 22 288.230469 Z M 22 86.480469 " clip-rule="nonzero"/></clipPath></defs><g clip-path="url(#40a2d6cffa)"><path fill="#000000" d="M 62.292969 86.546875 L 223.769531 86.546875 C 225.066406 86.546875 226.359375 86.609375 227.648438 86.738281 C 228.9375 86.863281 230.21875 87.054688 231.492188 87.304688 C 232.761719 87.558594 234.019531 87.871094 235.257812 88.25 C 236.5 88.625 237.71875 89.058594 238.917969 89.554688 C 240.113281 90.050781 241.285156 90.601562 242.429688 91.210938 C 243.574219 91.820312 244.683594 92.484375 245.761719 93.203125 C 246.839844 93.921875 247.878906 94.691406 248.882812 95.511719 C 249.882812 96.332031 250.84375 97.199219 251.761719 98.117188 C 252.675781 99.03125 253.546875 99.988281 254.367188 100.988281 C 255.191406 101.988281 255.960938 103.023438 256.683594 104.101562 C 257.402344 105.175781 258.070312 106.285156 258.679688 107.425781 C 259.292969 108.566406 259.84375 109.734375 260.339844 110.929688 C 260.835938 112.125 261.273438 113.339844 261.648438 114.578125 C 262.027344 115.816406 262.339844 117.070312 262.59375 118.335938 C 262.847656 119.605469 263.035156 120.882812 263.164062 122.171875 C 263.289062 123.457031 263.355469 124.75 263.355469 126.042969 L 263.355469 248.96875 C 263.355469 250.261719 263.289062 251.550781 263.164062 252.839844 C 263.035156 254.125 262.847656 255.40625 262.59375 256.671875 C 262.339844 257.941406 262.027344 259.195312 261.648438 260.433594 C 261.273438 261.671875 260.835938 262.886719 260.339844 264.082031 C 259.84375 265.277344 259.292969 266.445312 258.679688 267.585938 C 258.070312 268.726562 257.402344 269.835938 256.683594 270.910156 C 255.960938 271.984375 255.191406 273.023438 254.367188 274.023438 C 253.546875 275.023438 252.675781 275.980469 251.761719 276.894531 C 250.84375 277.808594 249.882812 278.675781 248.882812 279.496094 C 247.878906 280.316406 246.839844 281.085938 245.761719 281.804688 C 244.683594 282.523438 243.574219 283.1875 242.429688 283.796875 C 241.285156 284.410156 240.113281 284.960938 238.917969 285.457031 C 237.71875 285.949219 236.5 286.386719 235.257812 286.761719 C 234.019531 287.136719 232.761719 287.449219 231.492188 287.703125 C 230.21875 287.957031 228.9375 288.144531 227.648438 288.273438 C 226.359375 288.398438 225.066406 288.460938 223.769531 288.460938 L 62.292969 288.460938 C 60.996094 288.460938 59.703125 288.398438 58.410156 288.273438 C 57.121094 288.144531 55.839844 287.957031 54.570312 287.703125 C 53.296875 287.449219 52.042969 287.136719 50.800781 286.761719 C 49.558594 286.386719 48.339844 285.949219 47.144531 285.457031 C 45.945312 284.960938 44.773438 284.410156 43.632812 283.796875 C 42.488281 283.1875 41.378906 282.523438 40.300781 281.804688 C 39.222656 281.085938 38.179688 280.316406 37.179688 279.496094 C 36.175781 278.675781 35.21875 277.808594 34.300781 276.894531 C 33.382812 275.980469 32.515625 275.023438 31.691406 274.023438 C 30.867188 273.023438 30.097656 271.984375 29.378906 270.910156 C 28.65625 269.835938 27.992188 268.726562 27.378906 267.585938 C 26.769531 266.445312 26.214844 265.277344 25.71875 264.082031 C 25.222656 262.886719 24.785156 261.671875 24.410156 260.433594 C 24.035156 259.195312 23.71875 257.941406 23.464844 256.671875 C 23.214844 255.402344 23.023438 254.125 22.898438 252.839844 C 22.769531 251.550781 22.707031 250.261719 22.707031 248.96875 L 22.707031 126.042969 C 22.707031 124.75 22.769531 123.457031 22.898438 122.171875 C 23.023438 120.882812 23.214844 119.605469 23.464844 118.335938 C 23.71875 117.070312 24.035156 115.816406 24.410156 114.578125 C 24.785156 113.339844 25.222656 112.125 25.71875 110.929688 C 26.214844 109.734375 26.769531 108.566406 27.378906 107.425781 C 27.992188 106.285156 28.65625 105.175781 29.378906 104.101562 C 30.097656 103.023438 30.867188 101.988281 31.691406 100.988281 C 32.515625 99.988281 33.382812 99.03125 34.300781 98.117188 C 35.21875 97.199219 36.175781 96.332031 37.179688 95.511719 C 38.179688 94.691406 39.222656 93.921875 40.300781 93.203125 C 41.378906 92.484375 42.488281 91.820312 43.632812 91.210938 C 44.773438 90.601562 45.945312 90.050781 47.144531 89.554688 C 48.339844 89.058594 49.558594 88.625 50.800781 88.25 C 52.042969 87.871094 53.296875 87.558594 54.570312 87.304688 C 55.839844 87.054688 57.121094 86.863281 58.410156 86.738281 C 59.703125 86.609375 60.996094 86.546875 62.292969 86.546875 Z M 62.292969 86.546875 " fill-opacity="1" fill-rule="nonzero"/></g><path fill="#000000" d="M 329.691406 100.273438 L 282.621094 127.292969 L 282.621094 247.75 L 329.726562 274.769531 C 342.292969 281.980469 352.621094 276.054688 352.621094 261.605469 L 352.621094 113.503906 C 352.585938 98.988281 342.292969 93.0625 329.691406 100.273438 Z M 329.691406 100.273438 " fill-opacity="1" fill-rule="nonzero"/></svg>